<svg xmlns="http://www.w3.org/2000/svg" viewBox="0 0 1040 104" width="1040" height="104" role="img" aria-label="Findings"><defs><linearGradient id="gold" x1="0" y1="0" x2="1" y2="0"><stop offset="0" stop-color="#A98B4F"/><stop offset="0.28" stop-color="#E8D5A8"/><stop offset="0.5" stop-color="#C6A664"/><stop offset="0.72" stop-color="#F4E9CC"/><stop offset="1" stop-color="#9C7E45"/></linearGradient><linearGradient id="iv" x1="0" y1="0" x2="0" y2="1"><stop offset="0" stop-color="#FAF6EE"/><stop offset="1" stop-color="#F1E9DA"/></linearGradient></defs><rect width="1040" height="104" rx="9" fill="url(#iv)"/><rect width="1040" height="104" rx="9" fill="none" stroke="#6B5340"/><rect x="0" y="0" width="7" height="104" rx="3.5" fill="url(#gold)"/><text x="34" y="40" font-family="ui-monospace,SFMono-Regular,Menlo,monospace" font-size="16.1" letter-spacing="2" fill="#A98B4F" font-weight="700">FINDINGS</text><text x="34" y="76" font-family="Georgia,'Times New Roman',serif" font-size="27.3" fill="#2B1B12" font-weight="700">What measuring a companion taught</text><text x="830" y="42" font-family="ui-monospace,SFMono-Regular,Menlo,monospace" font-size="17.4" fill="#8A7666" text-anchor="end">instrument first</text><rect x="844.0" y="72.7" width="8.1" height="13.3" fill="#C6A664" opacity="0.42"/><rect x="860.2" y="70.6" width="8.1" height="15.4" fill="#C6A664" opacity="0.47"/><rect x="876.4" y="68.6" width="8.1" height="17.4" fill="#C6A664" opacity="0.53"/><rect x="892.6" y="66.5" width="8.1" height="19.5" fill="#C6A664" opacity="0.58"/><rect x="908.8" y="64.4" width="8.1" height="21.6" fill="#C6A664" opacity="0.64"/><rect x="925.0" y="62.4" width="8.1" height="23.6" fill="#C6A664" opacity="0.69"/><rect x="941.2" y="60.3" width="8.1" height="25.7" fill="#C6A664" opacity="0.74"/><rect x="957.4" y="58.2" width="8.1" height="27.8" fill="#C6A664" opacity="0.80"/><rect x="973.6" y="56.1" width="8.1" height="29.9" fill="#C6A664" opacity="0.85"/><rect x="989.8" y="54.1" width="8.1" height="31.9" fill="#C6A664" opacity="0.91"/></svg>
